<svg xmlns="http://www.w3.org/2000/svg" viewBox="0 0 54 54">
  <g id="Слой_2" data-name="Слой 2">
    <g id="天气">
      <g id="晴天">
        <g id="椭圆_61" data-name="椭圆 61">
          <path d="M7,26H1a1,1,0,0,0,0,2H7a1,1,0,0,0,0-2Zm5.26-12.32a1,1,0,0,0,1.42-1.42l-4-4A1,1,0,0,0,8.26,9.7ZM27,8a1,1,0,0,0,1-1V1a1,1,0,0,0-2,0V7A1,1,0,0,0,27,8Zm14.74,5.68,4-4a1,1,0,0,0-1.41-1.41l-4,4a1,1,0,0,0,1.42,1.42ZM27,46a1,1,0,0,0-1,1v6a1,1,0,0,0,2,0V47A1,1,0,0,0,27,46ZM53,26H47a1,1,0,0,0,0,2h6a1,1,0,0,0,0-2ZM27,12A15,15,0,1,0,42,27,15,15,0,0,0,27,12Zm0,28A13,13,0,1,1,40,27,13,13,0,0,1,27,40Zm-14.74.32-4,4a1,1,0,0,0,0,1.42,1,1,0,0,0,1.41,0l4-4a1,1,0,0,0,0-1.41A1,1,0,0,0,12.26,40.32Zm29.48,0a1,1,0,0,0-1.42,0,1,1,0,0,0,0,1.41l4,4a1,1,0,0,0,1.41,0,1,1,0,0,0,0-1.42Z" style="fill: #efd10c"/>
        </g>
      </g>
    </g>
  </g>
</svg>
