<svg xmlns="http://www.w3.org/2000/svg" viewBox="0 0 46 37">
  <g id="Слой_2" data-name="Слой 2">
    <g id="天气">
      <g id="阴霾">
        <g id="圆角矩形_60" data-name="圆角矩形 60">
          <path d="M9,2h6a1,1,0,0,0,0-2H9A1,1,0,0,0,9,2ZM22,2H37a1,1,0,0,0,0-2H22a1,1,0,0,0,0,2ZM5,9H41a1,1,0,0,0,0-2H5A1,1,0,0,0,5,9ZM2,16H44a1,1,0,0,0,0-2H2a1,1,0,0,0,0,2Zm43,5H1a1,1,0,0,0,0,2H45a1,1,0,0,0,0-2Zm-1,7H2a1,1,0,0,0,0,2H44a1,1,0,0,0,0-2ZM25,35H7a1,1,0,0,0,0,2H25a1,1,0,0,0,0-2Zm14,0H32a1,1,0,0,0,0,2h7a1,1,0,0,0,0-2Z" style="fill: #fff"/>
        </g>
      </g>
    </g>
  </g>
</svg>
