<svg xmlns="http://www.w3.org/2000/svg" viewBox="0 0 59 30.03">
  <g id="Слой_2" data-name="Слой 2">
    <g id="天气">
      <g id="未知">
        <g id="圆角矩形_59" data-name="圆角矩形 59">
          <path d="M17,0a1,1,0,0,0-1,1V25.26L1.86.5A.81.81,0,0,0,1.74.36L1.68.29A1.1,1.1,0,0,0,1.42.11l0,0A.84.84,0,0,0,1,0H1A.87.87,0,0,0,.64.09h0L.5.14A.7.7,0,0,0,.34.27L.28.33A.87.87,0,0,0,.12.56a.54.54,0,0,0,0,.11A.86.86,0,0,0,0,.9S0,1,0,1V29a1,1,0,0,0,2,0V4.77L16.14,29.53a1.27,1.27,0,0,0,.11.13l.08.08a.81.81,0,0,0,.24.17l.07,0A1.14,1.14,0,0,0,17,30H17a1.2,1.2,0,0,0,.32-.06l.07,0,.09,0a.93.93,0,0,0,.15-.13l.08-.07a1.28,1.28,0,0,0,.14-.21.52.52,0,0,0,.06-.13.79.79,0,0,0,.05-.22s0-.07,0-.12V1A1,1,0,0,0,17,0ZM35.5.14A1,1,0,0,0,34.14.5l-10,28a1,1,0,0,0,.36,1.37,1,1,0,0,0,1.36-.36l10-28A1,1,0,0,0,35.5.14ZM58.86,28.52,49,.79a.88.88,0,0,0,0-.15L48.86.5l0,0L48.7.31a1.07,1.07,0,0,0-.16-.14l0,0a.28.28,0,0,0-.12,0A.62.62,0,0,0,48.19,0h-.38a.62.62,0,0,0-.19.07.28.28,0,0,0-.12,0l0,0L47.3.31l-.13.14,0,0,0,.14A.47.47,0,0,0,47,.79L37.14,28.52a1,1,0,0,0,.36,1.37,1,1,0,0,0,1.36-.36l3-8.52H54.1l3,8.52a1,1,0,0,0,1.36.36A1,1,0,0,0,58.86,28.52ZM42.62,19,48,3.93,53.38,19Z" style="fill: #fff"/>
        </g>
      </g>
    </g>
  </g>
</svg>
