<svg xmlns="http://www.w3.org/2000/svg" viewBox="0 0 65 57">
  <g id="Слой_2" data-name="Слой 2">
    <g id="天气">
      <g id="阵雨">
        <g id="形状_3" data-name="形状 3">
          <path d="M31.45,53.28c-1.62,2.69,1.49,5.09,3.62,2.81C36,55.1,36,50,36,50S32.23,52,31.45,53.28Zm2.91-7.39c.65-1.1.54-5.89.54-5.89s-3.46,2-4.33,3.21C28.49,46.14,32.87,48.39,34.36,45.89ZM44.9,43s-3.46,2-4.33,3.21c-2.08,2.93,2.3,5.18,3.79,2.68C45,47.79,44.9,43,44.9,43Z" style="fill: #9ed3ff"/>
        </g>
        <g id="椭圆_62" data-name="椭圆 62">
          <path d="M4,20H1a1,1,0,0,0,0,2H4a1,1,0,0,0,0-2ZM8.26,9.67a1,1,0,0,0,1.41,0,1,1,0,0,0,0-1.41l-2-2A1,1,0,0,0,6.26,7.68ZM21,5a1,1,0,0,0,1-1V1a1,1,0,0,0-2,0V4A1,1,0,0,0,21,5ZM35.74,6.26a1,1,0,0,0-1.42,0l-2,2a1,1,0,0,0,0,1.41,1,1,0,0,0,1.41,0l2-2A1,1,0,0,0,35.74,6.26ZM8.26,32.32l-2,2a1,1,0,0,0,0,1.41,1,1,0,0,0,1.42,0l2-2a1,1,0,0,0-1.41-1.42ZM29.41,11.11A13,13,0,0,0,11.09,29.37a.93.93,0,0,0,.22.27l0,0h0l0,0a1,1,0,0,0,1.4-.18,1,1,0,0,0-.15-1.37l0,0A11,11,0,0,1,28.26,12.75l0,0a1,1,0,0,0,1.38-1.45A1.45,1.45,0,0,0,29.41,11.11Z" style="fill: #efd10c"/>
        </g>
        <g id="椭圆_12_拷贝" data-name="椭圆 12 拷贝">
          <path d="M52.68,23A16.49,16.49,0,0,0,21,29h0a10,10,0,0,0,0,20h3a1,1,0,0,0,0-2H21a8,8,0,0,1,0-16,8.16,8.16,0,0,1,2.12.29A15.08,15.08,0,0,1,23,29.5,14.5,14.5,0,0,1,51.29,25c.24,0,.47,0,.71,0a11,11,0,0,1,0,22c-.34,0-.67,0-1-.06V47a1,1,0,0,0,0,2,1.42,1.42,0,0,0,.2,0c.27,0,.53,0,.8,0a13,13,0,0,0,.68-26Z" style="fill: #fff"/>
        </g>
        <g id="椭圆_12_拷贝_3" data-name="椭圆 12 拷贝 3">
          <path d="M40.24,30.51l0,0a1,1,0,0,0,1.76.92h0A11,11,0,0,1,52,25V23A13,13,0,0,0,40.24,30.51Z" style="fill: #fff"/>
        </g>
      </g>
    </g>
  </g>
</svg>
