<svg xmlns="http://www.w3.org/2000/svg" viewBox="0 0 55 44">
  <g id="Слой_2" data-name="Слой 2">
    <g id="天气">
      <g id="有雾">
        <g id="圆角矩形_56" data-name="圆角矩形 56">
          <path d="M54,28H1a1,1,0,0,0,0,2H54a1,1,0,0,0,0-2ZM28,36a1,1,0,0,0-1-1H4a1,1,0,0,0,0,2H27A1,1,0,0,0,28,36Zm18,6H9a1,1,0,0,0,0,2H46a1,1,0,0,0,0-2Z" style="fill: #fff"/>
        </g>
        <g id="椭圆_12_拷贝" data-name="椭圆 12 拷贝">
          <path d="M54,23A13,13,0,0,0,41.68,10,16.49,16.49,0,0,0,10,16h0A10,10,0,0,0,.3,23.61h0c0,.13-.07.25-.1.38h0a1,1,0,0,0,2,0h0A8,8,0,0,1,10,18a8.16,8.16,0,0,1,2.12.29A15.08,15.08,0,0,1,12,16.5,14.5,14.5,0,0,1,40.29,12c.24,0,.47,0,.71,0A11,11,0,0,1,52,23c0,.34,0,.67,0,1h0a1,1,0,0,0,2,0,.24.24,0,0,0,0-.08C54,23.62,54,23.31,54,23Z" style="fill: #fff"/>
        </g>
        <g id="椭圆_12_拷贝_3" data-name="椭圆 12 拷贝 3">
          <path d="M29.24,17.51l0,0a1,1,0,0,0,1.76.92h0A11,11,0,0,1,41,12V10A13,13,0,0,0,29.24,17.51Z" style="fill: #fff"/>
        </g>
      </g>
    </g>
  </g>
</svg>
