<svg xmlns="http://www.w3.org/2000/svg" viewBox="0 0 54 43">
  <g id="Слой_2" data-name="Слой 2">
    <g id="天气">
      <g id="大雨">
        <g id="形状_3" data-name="形状 3">
          <path d="M20.45,39.28c-1.62,2.69,1.49,5.09,3.62,2.81C25,41.1,25,36,25,36S21.23,38,20.45,39.28Zm2.91-6.39c.65-1.1.54-5.89.54-5.89s-3.46,2-4.33,3.21C17.49,33.14,21.87,35.39,23.36,32.89ZM33.9,30s-3.46,2-4.33,3.21c-2.08,2.93,2.3,5.18,3.79,2.68C34,34.79,33.9,30,33.9,30Z" style="fill: #9ed3ff"/>
        </g>
        <g id="椭圆_12_拷贝" data-name="椭圆 12 拷贝">
          <path d="M41.68,10A16.49,16.49,0,0,0,10,16h0a10,10,0,0,0,0,20h4a1,1,0,0,0,0-2H10a8,8,0,0,1,0-16,8.16,8.16,0,0,1,2.12.29A15.08,15.08,0,0,1,12,16.5,14.5,14.5,0,0,1,40.29,12c.24,0,.47,0,.71,0a11,11,0,0,1,0,22H39a1,1,0,0,0,0,2h2a13,13,0,0,0,.68-26Z" style="fill: #fff"/>
        </g>
        <g id="椭圆_12_拷贝_3" data-name="椭圆 12 拷贝 3">
          <path d="M29.24,17.5l0,.06a1,1,0,0,0,1.76.92h0A11,11,0,0,1,41,12V10A13,13,0,0,0,29.24,17.5Z" style="fill: #fff"/>
        </g>
      </g>
    </g>
  </g>
</svg>
