<svg xmlns="http://www.w3.org/2000/svg" viewBox="0 0 47.14 45">
  <g id="Слой_2" data-name="Слой 2">
    <g id="天气">
      <g id="大雪">
        <g id="圆角矩形_57" data-name="圆角矩形 57">
          <path d="M46.64,41.1,44.91,40l1.69-1.13A1,1,0,0,0,47,37.47a1,1,0,0,0-1.37-.37l-1.49,1V36a1,1,0,0,0-2,0v2.1l-1.5-1a1,1,0,0,0-1.37.37,1,1,0,0,0,.37,1.36L41.3,40,39.57,41.1a1,1,0,0,0-.36,1.37,1,1,0,0,0,1.36.36l1.54-1V44a1,1,0,0,0,2,0V41.82l1.53,1A1,1,0,0,0,47,42.47,1,1,0,0,0,46.64,41.1Z" style="fill: #fff"/>
        </g>
        <g id="椭圆_63" data-name="椭圆 63">
          <path d="M37,24.67l-6.47,1.74-6.64-3.83a4.76,4.76,0,0,0,0-3.16l6.64-3.83L37,17.32a1,1,0,1,0,.52-1.93l-4.54-1.22,4-2.31a1,1,0,0,0-1-1.73l-4,2.31L33.14,7.9a1,1,0,1,0-1.93-.52l-1.73,6.47-6.64,3.84a5,5,0,0,0-2.73-1.59V8.44l4.73-4.73a1,1,0,0,0,0-1.42,1,1,0,0,0-1.41,0L20.11,5.62V1a1,1,0,0,0-2,0V5.62L14.78,2.29a1,1,0,0,0-1.41,0,1,1,0,0,0,0,1.42l4.74,4.73V16.1a5,5,0,0,0-2.74,1.59L8.73,13.85,7,7.38a1,1,0,1,0-1.93.52l1.21,4.54-4-2.31a1,1,0,0,0-1,1.73l4,2.31L.74,15.39a1,1,0,1,0,.52,1.93l6.47-1.73,6.64,3.83A5.18,5.18,0,0,0,14.11,21a4.89,4.89,0,0,0,.26,1.58L7.73,26.41,1.26,24.67a1,1,0,1,0-.52,1.94l4.54,1.21-4,2.31A1,1,0,0,0,.92,31.5a1,1,0,0,0,1.36.36l4-2.3L5.07,34.1A1,1,0,0,0,7,34.62l1.73-6.48,6.64-3.83a5,5,0,0,0,2.74,1.59v7.65l-4.74,4.74a1,1,0,0,0,0,1.42,1,1,0,0,0,1.41,0l3.33-3.33V41a1,1,0,0,0,2,0V36.38l3.32,3.33a1,1,0,0,0,1.41,0,1,1,0,0,0,0-1.42l-4.73-4.74V25.9a5,5,0,0,0,2.73-1.59l6.64,3.83,1.73,6.48a1,1,0,0,0,1.23.7,1,1,0,0,0,.7-1.22l-1.21-4.54,4,2.3a1,1,0,0,0,1.36-.36,1,1,0,0,0-.36-1.37l-4-2.31,4.54-1.21A1,1,0,1,0,37,24.67ZM19.11,24a3,3,0,1,1,3-3A3,3,0,0,1,19.11,24Z" style="fill: #fff"/>
        </g>
      </g>
    </g>
  </g>
</svg>
