<svg xmlns="http://www.w3.org/2000/svg" viewBox="0 0 54 44">
  <g id="Слой_2" data-name="Слой 2">
    <g id="天气">
      <g id="强雷暴">
        <g id="形状_3_拷贝_3" data-name="形状 3 拷贝 3">
          <path d="M32,33H28l2-8L21,36h4l-2,8Z" style="fill: #fff"/>
        </g>
        <g id="椭圆_12_拷贝" data-name="椭圆 12 拷贝">
          <path d="M41.68,10A16.49,16.49,0,0,0,10,16h0a10,10,0,0,0,0,20h2a1,1,0,0,0,0-2H10a8,8,0,0,1,0-16,8.16,8.16,0,0,1,2.12.29A15.08,15.08,0,0,1,12,16.5,14.5,14.5,0,0,1,40.29,12c.24,0,.47,0,.71,0a11,11,0,0,1,0,22H40a1,1,0,0,0,0,2h1a13,13,0,0,0,.68-26Z" style="fill: #fff"/>
        </g>
        <g id="椭圆_12_拷贝_3" data-name="椭圆 12 拷贝 3">
          <path d="M29.24,17.51l0,0a1,1,0,0,0,1.76.92h0A11,11,0,0,1,41,12V10A13,13,0,0,0,29.24,17.51Z" style="fill: #fff"/>
        </g>
      </g>
    </g>
  </g>
</svg>
