<?xml version="1.0" encoding="utf-8"?>
<!-- Generator: Adobe Illustrator 17.0.0, SVG Export Plug-In . SVG Version: 6.00 Build 0)  -->
<!DOCTYPE svg PUBLIC "-//W3C//DTD SVG 1.1//EN" "http://www.w3.org/Graphics/SVG/1.1/DTD/svg11.dtd">
<svg version="1.1" id="Layer_1" xmlns="http://www.w3.org/2000/svg" xmlns:xlink="http://www.w3.org/1999/xlink" x="0px" y="0px"
	 width="1600px" height="1200px" viewBox="0 0 1600 1200" enable-background="new 0 0 1600 1200" xml:space="preserve">
<g>
	<defs>
		<path id="SVGID_1_" d="M1361.83,395.213c-6.43-0.088-12.74,1.73-18.13,5.227c-5.389,3.496-9.63,8.512-12.17,14.415
			c-4.601,0.98-10.72,3.941-10.72,3.941l15.36,1.551c0,0,0.849-0.945,1.04-1.551c1.809-5.045,5.16-9.393,9.58-12.427
			c4.42-3.034,9.68-4.6,15.04-4.475c14.13,0,25.62,10.489,25.62,23.384c0,0.886,0.35,1.735,0.98,2.362
			c0.62,0.626,1.471,0.978,2.36,0.978c2.8-0.128,5.54,0.852,7.62,2.728c2.08,1.877,3.34,4.495,3.5,7.295
			c-0.16,2.796-1.42,5.418-3.5,7.292c-2.08,1.876-4.82,2.856-7.62,2.728h-15.601c-0.889,0-1.739,0.352-2.359,0.979
			c-0.63,0.626-0.981,1.476-0.981,2.362s0.351,1.735,0.981,2.362c0.62,0.626,1.47,0.978,2.359,0.978h15.601
			c4.57,0.135,9.01-1.546,12.35-4.676s5.3-7.454,5.45-12.025c-0.1-4.026-1.63-7.884-4.31-10.891c-2.68-3.008-6.33-4.972-10.32-5.546
			c-1.12-7.656-5.01-14.633-10.93-19.608c-5.69-4.783-12.888-7.396-20.304-7.396C1362.427,395.2,1362.129,395.204,1361.83,395.213"
			/>
	</defs>
	<clipPath id="SVGID_2_">
		<use xlink:href="#SVGID_1_"  overflow="visible"/>
	</clipPath>
	
		<linearGradient id="SVGID_3_" gradientUnits="userSpaceOnUse" x1="0" y1="1200" x2="1" y2="1200" gradientTransform="matrix(0 60.1493 -60.1493 0 73543.8906 395.2001)">
		<stop  offset="0" style="stop-color:#9EA8E1"/>
		<stop  offset="1" style="stop-color:#D0D7F1"/>
	</linearGradient>
	<rect x="1320.81" y="395.125" clip-path="url(#SVGID_2_)" fill="url(#SVGID_3_)" width="87.78" height="60.352"/>
</g>
<g>
	<defs>
		<path id="SVGID_4_" d="M1301.13,422.52c-6.89,5.785-11.42,13.899-12.72,22.801c-4.63,0.667-8.88,2.951-11.99,6.448
			c-3.12,3.497-4.89,7.982-5.02,12.663c0.18,5.316,2.46,10.344,6.34,13.984c3.88,3.639,9.05,5.594,14.359,5.437h18.141
			c1.029,0,2.019-0.41,2.75-1.139c0.73-0.727,1.14-1.715,1.14-2.745c0-1.03-0.41-2.018-1.14-2.747
			c-0.731-0.727-1.721-1.138-2.75-1.138h-18.141c-3.25,0.149-6.429-0.992-8.859-3.171c-2.419-2.182-3.88-5.229-4.07-8.481
			c0.19-3.253,1.651-6.3,4.07-8.481c2.43-2.181,5.609-3.321,8.859-3.172c1.031,0,2.021-0.41,2.751-1.138
			c0.73-0.729,1.14-1.717,1.14-2.747c0-14.993,13.36-27.19,29.79-27.19c6.23-0.145,12.35,1.675,17.49,5.203
			c5.14,3.528,9.029,8.584,11.14,14.452c0.22,0.703,0.64,1.328,1.201,1.802c0.568,0.474,1.25,0.779,1.979,0.878
			c3.98,0.421,7.679,2.27,10.4,5.206c2.72,2.935,4.28,6.758,4.399,10.758c-0.149,4.407-2.039,8.574-5.259,11.587
			c-3.22,3.014-7.5,4.631-11.91,4.494h-29.44c-1.03,0-2.02,0.411-2.749,1.138c-0.72,0.729-1.131,1.717-1.131,2.747
			c0,1.03,0.411,2.018,1.131,2.745c0.729,0.729,1.719,1.139,2.749,1.139h29.44c6.469,0.125,12.72-2.313,17.391-6.782
			c4.669-4.468,7.389-10.604,7.549-17.068c-0.099-5.465-2.049-10.736-5.521-14.954c-3.479-4.218-8.279-7.134-13.629-8.274
			c-2.96-6.864-7.88-12.697-14.15-16.762s-13.61-6.18-21.08-6.078c-0.348-0.01-0.697-0.015-1.044-0.015
			C1316.112,413.919,1307.743,416.958,1301.13,422.52"/>
	</defs>
	<clipPath id="SVGID_5_">
		<use xlink:href="#SVGID_4_"  overflow="visible"/>
	</clipPath>
	
		<linearGradient id="SVGID_6_" gradientUnits="userSpaceOnUse" x1="0" y1="1200" x2="1" y2="1200" gradientTransform="matrix(0 69.9417 -69.9417 0 85255.7734 413.92)">
		<stop  offset="0" style="stop-color:#A1D2FA"/>
		<stop  offset="1" style="stop-color:#DCE2F6"/>
	</linearGradient>
	<rect x="1271.4" y="413.833" clip-path="url(#SVGID_5_)" fill="url(#SVGID_6_)" width="108.76" height="70.177"/>
</g>
<g>
	<defs>
		<path id="SVGID_7_" d="M785.475,750.918h12.163l-6.695,20.518c-0.213,0.656-0.27,1.355-0.161,2.037
			c0.107,0.682,0.374,1.328,0.78,1.888c0.405,0.559,0.937,1.015,1.552,1.329s1.296,0.478,1.986,0.478h9.1l-15.312,21.875
			l1.837-12.512c0.088-0.625,0.039-1.261-0.142-1.865c-0.181-0.605-0.491-1.163-0.909-1.635c-0.415-0.474-0.925-0.851-1.499-1.107
			c-0.574-0.256-1.196-0.386-1.825-0.381h-7.569L785.475,750.918z M799.475,698.418c-20.169,0-36.882,13.563-39.112,30.975
			c-4.761,0.622-9.151,2.902-12.399,6.438c-3.248,3.536-5.147,8.102-5.364,12.9c0.305,5.505,2.778,10.668,6.876,14.356
			c4.099,3.689,9.492,5.605,14.999,5.331h8.181l-3.806,16.8c-0.139,0.646-0.13,1.315,0.027,1.956
			c0.157,0.643,0.457,1.242,0.878,1.751s0.952,0.917,1.553,1.192c0.601,0.273,1.256,0.41,1.917,0.395h7.963L777.6,815.93
			c-0.138,0.972,0.054,1.962,0.546,2.811c0.493,0.849,1.255,1.508,2.167,1.871c0.529,0.209,1.093,0.312,1.662,0.306
			c0.705-0.001,1.4-0.173,2.025-0.5c0.624-0.328,1.161-0.802,1.563-1.381l30.624-43.75c0.433-0.638,0.688-1.378,0.742-2.147
			c0.053-0.768-0.097-1.537-0.435-2.228c-0.351-0.739-0.902-1.363-1.591-1.804c-0.688-0.44-1.486-0.68-2.304-0.69h-11.461
			l6.693-20.519c0.211-0.642,0.268-1.325,0.171-1.994c-0.098-0.669-0.35-1.307-0.736-1.862c-0.386-0.555-0.895-1.013-1.488-1.339
			c-0.592-0.325-1.252-0.509-1.929-0.536h-21.874c-1.011-0.026-2,0.302-2.798,0.924c-0.797,0.622-1.355,1.502-1.577,2.489
			l-3.019,14.087h-10.106c-3.184,0.256-6.341-0.745-8.795-2.79c-2.454-2.044-4.008-4.97-4.33-8.147
			c0.322-3.178,1.876-6.103,4.33-8.148c2.454-2.045,5.611-3.047,8.795-2.79c1.159,0,2.273-0.461,3.094-1.281
			c0.82-0.821,1.281-1.934,1.281-3.094c0-14.482,13.738-26.25,30.625-26.25c6.271-0.219,12.457,1.492,17.724,4.904
			c5.266,3.411,9.356,8.358,11.72,14.171c0.266,0.783,0.749,1.472,1.391,1.99c0.644,0.519,1.42,0.845,2.239,0.941
			c3.925,0.27,7.619,1.958,10.388,4.753c2.77,2.793,4.428,6.501,4.662,10.429c-0.313,4.341-2.327,8.385-5.603,11.251
			c-3.276,2.867-7.551,4.325-11.896,4.061h-4.375c-1.159,0-2.273,0.461-3.094,1.281c-0.82,0.821-1.281,1.934-1.281,3.094
			c0,1.16,0.461,2.273,1.281,3.094c0.821,0.82,1.935,1.281,3.094,1.281h4.375c6.668,0.273,13.171-2.105,18.091-6.615
			c4.919-4.509,7.852-10.782,8.159-17.447c-0.191-5.603-2.282-10.974-5.933-15.227c-3.65-4.255-8.64-7.139-14.149-8.18
			c-3.274-6.928-8.5-12.75-15.034-16.753c-6.195-3.793-13.311-5.796-20.557-5.796C800.276,698.4,799.876,698.406,799.475,698.418"/>
	</defs>
	<clipPath id="SVGID_8_">
		<use xlink:href="#SVGID_7_"  overflow="visible"/>
	</clipPath>
	
		<linearGradient id="SVGID_9_" gradientUnits="userSpaceOnUse" x1="1.992683e-006" y1="1200" x2="1" y2="1200" gradientTransform="matrix(0 122.5185 -122.5185 0 147821.7188 698.3998)">
		<stop  offset="0" style="stop-color:#9EA8E1"/>
		<stop  offset="1" style="stop-color:#D0D7F1"/>
	</linearGradient>
	<rect x="742.6" y="698.4" clip-path="url(#SVGID_8_)" fill="url(#SVGID_9_)" width="113.75" height="122.524"/>
</g>
<g>
	<defs>
		<path id="SVGID_10_" d="M797.638,750.918l-6.695,20.518c-0.213,0.658-0.27,1.355-0.161,2.038c0.107,0.682,0.374,1.329,0.78,1.888
			c0.405,0.559,0.937,1.014,1.552,1.328s1.296,0.478,1.986,0.478h9.1l-15.312,21.875l1.837-12.512
			c0.088-0.625,0.039-1.261-0.142-1.865c-0.181-0.605-0.491-1.163-0.909-1.635c-0.415-0.473-0.925-0.851-1.499-1.106
			c-0.574-0.257-1.196-0.387-1.825-0.382h-7.569l6.694-30.625H797.638z M779.178,743.092c-0.798,0.622-1.356,1.502-1.578,2.489
			l-4.944,22.837l-3.806,16.8c-0.139,0.646-0.129,1.316,0.027,1.957c0.157,0.643,0.457,1.241,0.878,1.75s0.952,0.917,1.553,1.192
			c0.601,0.274,1.257,0.41,1.917,0.395h7.963L777.6,815.93c-0.138,0.972,0.054,1.962,0.546,2.811
			c0.493,0.849,1.255,1.508,2.167,1.871c0.529,0.209,1.093,0.312,1.662,0.306c0.706-0.001,1.4-0.173,2.025-0.5
			c0.624-0.328,1.161-0.801,1.563-1.381l30.624-43.75c0.433-0.638,0.688-1.378,0.742-2.146c0.053-0.768-0.097-1.537-0.435-2.229
			c-0.351-0.739-0.902-1.363-1.591-1.802c-0.688-0.442-1.486-0.682-2.304-0.692h-11.461l6.693-20.518
			c0.211-0.643,0.268-1.326,0.171-1.995c-0.098-0.669-0.35-1.307-0.736-1.861c-0.385-0.556-0.895-1.014-1.487-1.339
			c-0.593-0.326-1.253-0.509-1.93-0.537h-21.874c-0.035-0.001-0.07-0.001-0.106-0.001
			C780.896,742.167,779.947,742.491,779.178,743.092"/>
	</defs>
	<clipPath id="SVGID_11_">
		<use xlink:href="#SVGID_10_"  overflow="visible"/>
	</clipPath>
	
		<linearGradient id="SVGID_12_" gradientUnits="userSpaceOnUse" x1="3.487653e-006" y1="1200" x2="1.0001" y2="1200" gradientTransform="matrix(0 78.7516 -78.7516 0 95294.7344 742.1667)">
		<stop  offset="0" style="stop-color:#FFB831"/>
		<stop  offset="1" style="stop-color:#FADA69"/>
	</linearGradient>
	<rect x="768.711" y="742.167" clip-path="url(#SVGID_11_)" fill="url(#SVGID_12_)" width="48.271" height="78.757"/>
</g>
<g>
	<defs>
		<path id="SVGID_13_" d="M832.331,438.343c-3.137-7.043-8.461-12.888-15.18-16.668c0.069-3.479,1.052-6.877,2.849-9.856
			c1.796-2.979,4.343-5.434,7.387-7.118c0.136,7.012,2.195,13.855,5.952,19.78c3.756,5.925,9.068,10.704,15.356,13.818
			c-1.945,1.398-4.122,2.435-6.434,3.063h0.22c-0.499,0.162-0.971,0.398-1.4,0.7C838.397,440.336,835.438,439.079,832.331,438.343
			 M831.369,393.937c-5.771,1.185-11.037,4.118-15.083,8.399c-4.047,4.281-6.678,9.704-7.536,15.533
			c-4.357-1.387-8.904-2.08-13.475-2.057c-20.169,0-36.881,13.563-39.113,30.975c-4.761,0.622-9.149,2.902-12.398,6.438
			c-3.248,3.536-5.147,8.103-5.364,12.9c0.305,5.505,2.777,10.667,6.876,14.356c4.099,3.689,9.491,5.605,14.999,5.331h17.5
			c1.16,0,2.273-0.461,3.093-1.281c0.821-0.821,1.281-1.934,1.281-3.094c0-1.16-0.46-2.273-1.281-3.094
			c-0.82-0.82-1.933-1.281-3.093-1.281h-17.5c-3.184,0.257-6.34-0.745-8.795-2.791c-2.454-2.043-4.008-4.969-4.33-8.146
			c0.322-3.178,1.876-6.103,4.33-8.148c2.455-2.045,5.611-3.046,8.795-2.79c1.16,0,2.272-0.461,3.093-1.281
			c0.821-0.821,1.282-1.934,1.282-3.094c0-14.481,13.738-26.25,30.625-26.25c6.271-0.22,12.459,1.492,17.724,4.904
			c5.266,3.411,9.357,8.358,11.72,14.171c0.267,0.782,0.748,1.472,1.392,1.99c0.642,0.519,1.419,0.845,2.238,0.941
			c3.926,0.27,7.618,1.959,10.388,4.753s4.428,6.5,4.664,10.429c-0.316,4.341-2.328,8.383-5.605,11.251
			c-3.277,2.867-7.551,4.326-11.896,4.061h-30.625c-1.16,0-2.273,0.461-3.094,1.281c-0.82,0.821-1.281,1.934-1.281,3.094
			c0,1.16,0.461,2.273,1.281,3.094c0.821,0.82,1.934,1.281,3.094,1.281H825.9c6.668,0.273,13.172-2.105,18.091-6.614
			c4.919-4.509,7.852-10.783,8.16-17.448c-0.023-4.73-1.557-9.329-4.375-13.125c4.84-1.958,9.07-5.176,12.25-9.318
			c0.458-0.544,0.775-1.19,0.928-1.884c0.153-0.693,0.134-1.414-0.054-2.098c-0.227-0.669-0.611-1.274-1.122-1.76
			c-0.51-0.488-1.131-0.845-1.809-1.04c-7.024-2.025-13.062-6.553-16.972-12.728c-3.91-6.176-5.421-13.571-4.247-20.784
			c0.14-0.726,0.097-1.474-0.129-2.177c-0.227-0.703-0.626-1.337-1.164-1.844c-0.537-0.507-1.193-0.869-1.909-1.053
			c-0.358-0.093-0.726-0.139-1.093-0.139C832.09,393.8,831.725,393.846,831.369,393.937"/>
	</defs>
	<clipPath id="SVGID_14_">
		<use xlink:href="#SVGID_13_"  overflow="visible"/>
	</clipPath>
	
		<linearGradient id="SVGID_15_" gradientUnits="userSpaceOnUse" x1="1.326305e-006" y1="1199.9998" x2="1" y2="1199.9998" gradientTransform="matrix(0 92.0378 -92.0378 0 111245.1172 393.7999)">
		<stop  offset="0" style="stop-color:#A1D2FA"/>
		<stop  offset="1" style="stop-color:#DCE2F6"/>
	</linearGradient>
	<rect x="738.4" y="393.8" clip-path="url(#SVGID_14_)" fill="url(#SVGID_15_)" width="122.707" height="92.286"/>
</g>
<g>
	<defs>
		<path id="SVGID_16_" d="M831.369,393.937c-5.771,1.185-11.037,4.118-15.083,8.399c-4.047,4.281-6.678,9.704-7.536,15.533
			c1.633,0.54,5.6,2.056,8.401,3.806c0.069-3.479,1.052-6.877,2.849-9.856c1.796-2.979,4.343-5.434,7.388-7.118
			c0.135,7.012,2.194,13.855,5.951,19.78c3.756,5.925,9.068,10.704,15.356,13.818c-1.944,1.398-4.122,2.435-6.433,3.063h0.219
			c-0.499,0.162-0.971,0.398-1.4,0.7c1.473,1.109,4.874,3.973,6.695,6.563c4.841-1.958,9.07-5.176,12.25-9.318
			c0.458-0.544,0.775-1.19,0.929-1.884c0.152-0.693,0.133-1.414-0.055-2.098c-0.226-0.669-0.611-1.274-1.122-1.76
			c-0.51-0.488-1.131-0.845-1.809-1.04c-7.024-2.025-13.062-6.553-16.972-12.728c-3.91-6.176-5.421-13.571-4.247-20.784
			c0.14-0.726,0.097-1.474-0.129-2.177c-0.227-0.703-0.626-1.337-1.163-1.844c-0.538-0.507-1.194-0.869-1.91-1.053
			c-0.358-0.093-0.726-0.139-1.093-0.139C832.09,393.8,831.725,393.846,831.369,393.937"/>
	</defs>
	<clipPath id="SVGID_17_">
		<use xlink:href="#SVGID_16_"  overflow="visible"/>
	</clipPath>
	
		<linearGradient id="SVGID_18_" gradientUnits="userSpaceOnUse" x1="0" y1="1199.9995" x2="1" y2="1199.9995" gradientTransform="matrix(0 54.825 -54.825 0 66624.9063 393.7999)">
		<stop  offset="0" style="stop-color:#FAFAFC"/>
		<stop  offset="1" style="stop-color:#CBD2E7"/>
	</linearGradient>
	<rect x="808.75" y="393.8" clip-path="url(#SVGID_17_)" fill="url(#SVGID_18_)" width="52.357" height="54.825"/>
</g>
<g>
	<defs>
		<path id="SVGID_19_" d="M1091.16,706.869c-1.09,0.201-2.049,0.826-2.669,1.735c-0.63,0.909-0.871,2.03-0.671,3.115l1.84,9.826
			l-3.349,5.69l-4.102-11.831c-0.139-0.542-0.388-1.049-0.739-1.489c-0.35-0.441-0.781-0.804-1.281-1.071
			c-0.489-0.264-1.029-0.425-1.589-0.471c-0.56-0.047-1.12,0.022-1.661,0.202c-0.529,0.179-1.019,0.467-1.429,0.843
			c-0.42,0.377-0.751,0.835-0.98,1.345c-0.231,0.512-0.36,1.065-0.37,1.626c0,0.561,0.1,1.116,0.32,1.635l6.3,18.381l-4.95,7.653
			H1064v-0.326l-5.731-8.474l5.931-17.438c0.319-1.048,0.21-2.18-0.299-3.147c-0.511-0.968-1.392-1.691-2.441-2.011
			c-1.05-0.322-2.18-0.212-3.149,0.303c-0.961,0.515-1.691,1.392-2.012,2.439l-4.089,11.585l-3.64-5.362l1.84-9.702
			c0.1-0.539,0.09-1.09-0.02-1.624c-0.121-0.535-0.34-1.042-0.65-1.493c-0.31-0.45-0.7-0.835-1.16-1.133
			c-0.46-0.297-0.97-0.502-1.51-0.601c-0.54-0.099-1.09-0.091-1.62,0.021c-0.54,0.115-1.04,0.332-1.5,0.642
			c-0.45,0.31-0.83,0.706-1.13,1.164c-0.301,0.46-0.499,0.972-0.6,1.509l-0.94,7.123l-7.53-1.393c-0.54-0.101-1.09-0.096-1.63,0.016
			c-0.53,0.109-1.04,0.326-1.5,0.634c-0.91,0.622-1.54,1.581-1.74,2.667c-0.21,1.086,0.021,2.209,0.64,3.122
			c0.631,0.914,1.59,1.543,2.669,1.749l9.741,1.842l3.65,5.363l-12.28-0.573c-1.09,0-2.13,0.431-2.9,1.199
			c-0.77,0.767-1.2,1.808-1.2,2.894c0,1.085,0.43,2.127,1.2,2.895s1.81,1.2,2.9,1.2l18.419,0.858l5.361,8.147l-3.77,8.187h-9.98
			l-11.061-14.738c-0.649-0.868-1.619-1.442-2.689-1.596c-1.08-0.153-2.17,0.126-3.04,0.778s-1.44,1.621-1.589,2.695
			c-0.161,1.076,0.119,2.169,0.769,3.035l7.37,10.071h-6.51l-6.96-7c-0.771-0.769-1.811-1.203-2.9-1.203
			c-1.09,0-2.14,0.434-2.91,1.203c-0.77,0.771-1.199,1.817-1.199,2.907s0.429,2.135,1.199,2.906l5.32,5.28l-5.32,5.282
			c-0.38,0.38-0.69,0.833-0.9,1.332c-0.2,0.499-0.31,1.034-0.31,1.574c0,0.54,0.11,1.075,0.31,1.574
			c0.21,0.499,0.52,0.951,0.9,1.333c0.38,0.383,0.829,0.688,1.33,0.895c0.499,0.208,1.04,0.315,1.58,0.315
			c0.54,0,1.07-0.107,1.57-0.315c0.5-0.207,0.95-0.512,1.33-0.895l6.96-7h6.51l-7.37,9.824c-0.65,0.869-0.93,1.959-0.769,3.035
			c0.149,1.075,0.719,2.045,1.589,2.696c0.71,0.531,1.57,0.819,2.46,0.819c0.63,0,1.26-0.148,1.83-0.432
			c0.57-0.285,1.06-0.697,1.439-1.207l11.061-14.735h10.231l4.299,7.408l-5.41,7.942l-18.34,0.779c-1.08,0-2.12,0.43-2.89,1.197
			c-0.77,0.769-1.201,1.81-1.201,2.896c0,1.085,0.431,2.126,1.201,2.893c0.77,0.769,1.81,1.2,2.89,1.2l12.29-0.573l-3.65,5.363
			l-9.7,1.842c-1.09,0.104-2.09,0.633-2.78,1.474c-0.69,0.84-1.03,1.922-0.92,3.008c0.101,1.086,0.631,2.086,1.47,2.781
			c0.84,0.695,1.92,1.027,3.01,0.924c0.24,0.04,0.49,0.04,0.741,0l7.359-1.392l1.4,7.367c0.18,0.947,0.69,1.799,1.439,2.405
			c0.75,0.607,1.691,0.93,2.651,0.912h0.78c0.53-0.098,1.031-0.3,1.48-0.595c0.46-0.294,0.84-0.674,1.15-1.119
			c0.3-0.445,0.519-0.946,0.63-1.474c0.11-0.526,0.11-1.072,0.01-1.601l-1.88-9.743l3.971-5.485l4.089,11.624
			c0.279,0.814,0.8,1.521,1.501,2.02c0.699,0.5,1.529,0.767,2.389,0.765c0.45-0.01,0.889-0.093,1.31-0.247
			c1.03-0.352,1.87-1.098,2.35-2.073c0.47-0.975,0.54-2.098,0.189-3.123l-5.979-17.399l5.241-7.942h11.509l5.401,7.942
			l-5.941,17.439c-0.34,1.015-0.27,2.123,0.2,3.088c0.47,0.965,1.29,1.708,2.3,2.068c0.42,0.154,0.86,0.237,1.309,0.247
			c0.891,0.047,1.781-0.201,2.521-0.704c0.729-0.502,1.29-1.232,1.57-2.081l4.1-11.624l3.64,5.362l-1.84,9.743
			c-0.1,0.531-0.1,1.074,0.009,1.602c0.111,0.527,0.331,1.028,0.631,1.473c0.31,0.445,0.69,0.826,1.149,1.121
			c0.451,0.293,0.951,0.495,1.48,0.594h0.78c0.961,0.017,1.901-0.306,2.651-0.913s1.26-1.457,1.441-2.403l1.399-7.369l7.32,1.392
			c0.26,0.038,0.52,0.038,0.78,0c1.09,0.103,2.17-0.229,3.01-0.923c0.841-0.696,1.37-1.696,1.47-2.782
			c0.11-1.085-0.22-2.168-0.92-3.008c-0.691-0.842-1.69-1.371-2.78-1.474l-9.7-1.843l-3.69-5.363l12.28,0.574h0.05
			c1.08,0,2.121-0.431,2.89-1.199c0.77-0.767,1.2-1.809,1.2-2.894c0-1.086-0.43-2.127-1.2-2.896c-0.769-0.766-1.81-1.198-2.89-1.198
			l-18.379-0.859l-5.781-8.432l-0.2-0.247l3.891-6.467h10.229l11.049,14.735c0.391,0.51,0.881,0.922,1.451,1.207
			c0.57,0.284,1.19,0.432,1.83,0.432c0.88,0,1.75-0.288,2.46-0.819c0.43-0.323,0.79-0.728,1.06-1.19
			c0.28-0.462,0.46-0.974,0.53-1.506c0.08-0.532,0.049-1.075-0.09-1.595c-0.13-0.521-0.36-1.01-0.69-1.44l-7.36-9.824h6.5l6.96,7
			c0.38,0.383,0.84,0.688,1.34,0.895c0.49,0.208,1.03,0.315,1.571,0.315c0.539,0,1.079-0.107,1.569-0.315
			c0.5-0.207,0.959-0.512,1.34-0.895c0.379-0.382,0.681-0.834,0.89-1.333c0.21-0.499,0.32-1.034,0.32-1.574
			c0-0.54-0.11-1.075-0.32-1.574c-0.209-0.499-0.511-0.952-0.89-1.332l-5.33-5.282l5.33-5.28c0.77-0.771,1.2-1.816,1.2-2.906
			s-0.43-2.136-1.2-2.907c-0.77-0.769-1.82-1.203-2.909-1.203c-1.09,0-2.142,0.434-2.911,1.203l-6.96,7h-6.5l7.36-9.824
			c0.33-0.43,0.56-0.92,0.69-1.44c0.139-0.521,0.17-1.063,0.09-1.596c-0.07-0.531-0.25-1.044-0.53-1.506
			c-0.27-0.462-0.63-0.867-1.06-1.188c-0.44-0.324-0.92-0.558-1.45-0.692c-0.52-0.133-1.06-0.163-1.59-0.087
			c-0.531,0.076-1.04,0.256-1.51,0.53c-0.46,0.274-0.86,0.637-1.191,1.067l-11.049,14.736h-10.229
			c-0.421,0.015-0.842,0.097-1.231,0.246c-0.87-0.267-1.81-0.237-2.66,0.09c-0.859,0.327-1.58,0.929-2.05,1.711l-5.81,9.988h-9.25
			l-4.749-8.187l3.809-8.187h13.75c0.49-0.017,0.97-0.113,1.43-0.286h0.29c0.42-0.207,0.8-0.468,1.15-0.778
			c0.18-0.172,0.35-0.364,0.49-0.573l6.63-10.643l17.48-0.818c1.05-0.054,2.04-0.509,2.76-1.27c0.73-0.761,1.13-1.774,1.13-2.825
			c0-0.555-0.11-1.104-0.33-1.615c-0.22-0.51-0.54-0.971-0.94-1.354c-0.41-0.383-0.88-0.68-1.4-0.873
			c-0.52-0.195-1.08-0.279-1.631-0.251l-11.829,0.532l3.31-5.364l9.62-1.8c1.09-0.201,2.05-0.825,2.68-1.734
			c0.62-0.911,0.861-2.03,0.66-3.117c-0.2-1.086-0.82-2.047-1.731-2.673c-0.909-0.625-2.028-0.864-3.119-0.664l-7.369,1.393
			l-1.391-7.327c-0.2-1.086-0.831-2.048-1.741-2.672c-0.69-0.482-1.517-0.734-2.353-0.734
			C1091.663,706.8,1091.41,706.823,1091.16,706.869"/>
	</defs>
	<clipPath id="SVGID_20_">
		<use xlink:href="#SVGID_19_"  overflow="visible"/>
	</clipPath>
	
		<linearGradient id="SVGID_21_" gradientUnits="userSpaceOnUse" x1="5.449559e-006" y1="1200" x2="1.0002" y2="1200" gradientTransform="matrix(0 106.4002 -106.4002 0 128750.1484 706.7994)">
		<stop  offset="0" style="stop-color:#D5DBF3"/>
		<stop  offset="1" style="stop-color:#A0CFF6"/>
	</linearGradient>
	<rect x="1012.6" y="706.8" clip-path="url(#SVGID_20_)" fill="url(#SVGID_21_)" width="114.67" height="106.417"/>
</g>
<g>
	<defs>
		<path id="SVGID_22_" d="M256.556,379.682c-0.82,0.82-1.281,1.934-1.281,3.093v8.75c0,1.16,0.461,2.273,1.281,3.093
			c0.821,0.821,1.934,1.282,3.094,1.282s2.272-0.461,3.093-1.282c0.821-0.82,1.282-1.933,1.282-3.093v-8.75
			c0-1.159-0.461-2.273-1.282-3.093c-0.821-0.821-1.933-1.282-3.093-1.282S257.377,378.861,256.556,379.682"/>
	</defs>
	<clipPath id="SVGID_23_">
		<use xlink:href="#SVGID_22_"  overflow="visible"/>
	</clipPath>
	
		<linearGradient id="SVGID_24_" gradientUnits="userSpaceOnUse" x1="6.975446e-006" y1="1200" x2="1" y2="1200" gradientTransform="matrix(0 17.5 -17.5 0 21259.6504 378.3999)">
		<stop  offset="0" style="stop-color:#FAC86A"/>
		<stop  offset="1" style="stop-color:#F1674C"/>
	</linearGradient>
	<rect x="255.275" y="378.4" clip-path="url(#SVGID_23_)" fill="url(#SVGID_24_)" width="8.75" height="17.5"/>
</g>
<g>
	<defs>
		<path id="SVGID_25_" d="M256.556,484.681c-0.82,0.821-1.281,1.934-1.281,3.094v8.75c0,1.16,0.461,2.272,1.281,3.093
			c0.821,0.821,1.934,1.282,3.094,1.282s2.272-0.461,3.093-1.282c0.821-0.821,1.282-1.933,1.282-3.093v-8.75
			c0-1.16-0.461-2.273-1.282-3.094c-0.821-0.82-1.933-1.281-3.093-1.281S257.377,483.861,256.556,484.681"/>
	</defs>
	<clipPath id="SVGID_26_">
		<use xlink:href="#SVGID_25_"  overflow="visible"/>
	</clipPath>
	
		<linearGradient id="SVGID_27_" gradientUnits="userSpaceOnUse" x1="6.975446e-006" y1="1200" x2="1" y2="1200" gradientTransform="matrix(0 17.5 -17.5 0 21259.6504 483.3999)">
		<stop  offset="0" style="stop-color:#FAC86A"/>
		<stop  offset="1" style="stop-color:#F1674C"/>
	</linearGradient>
	<rect x="255.275" y="483.4" clip-path="url(#SVGID_26_)" fill="url(#SVGID_27_)" width="8.75" height="17.5"/>
</g>
<g>
	<defs>
		<path id="SVGID_28_" d="M202.774,435.275c-1.159,0-2.272,0.461-3.093,1.281c-0.821,0.821-1.281,1.934-1.281,3.094
			c0,1.16,0.46,2.273,1.281,3.093c0.821,0.821,1.934,1.282,3.093,1.282h8.751c1.16,0,2.273-0.461,3.093-1.282
			c0.821-0.82,1.282-1.933,1.282-3.093c0-1.16-0.461-2.273-1.282-3.094c-0.82-0.82-1.933-1.281-3.093-1.281H202.774z"/>
	</defs>
	<clipPath id="SVGID_29_">
		<use xlink:href="#SVGID_28_"  overflow="visible"/>
	</clipPath>
	
		<linearGradient id="SVGID_30_" gradientUnits="userSpaceOnUse" x1="1.395089e-005" y1="1200" x2="1" y2="1200" gradientTransform="matrix(0 8.75 -8.75 0 10707.1504 435.2749)">
		<stop  offset="0" style="stop-color:#FAC86A"/>
		<stop  offset="1" style="stop-color:#F1674C"/>
	</linearGradient>
	<rect x="198.4" y="435.275" clip-path="url(#SVGID_29_)" fill="url(#SVGID_30_)" width="17.5" height="8.75"/>
</g>
<g>
	<defs>
		<path id="SVGID_31_" d="M307.775,435.275c-1.159,0-2.273,0.461-3.094,1.281c-0.82,0.821-1.281,1.934-1.281,3.094
			c0,1.16,0.461,2.273,1.281,3.093c0.821,0.821,1.935,1.282,3.094,1.282h8.75c1.16,0,2.273-0.461,3.093-1.282
			c0.821-0.82,1.282-1.933,1.282-3.093c0-1.16-0.461-2.273-1.282-3.094c-0.82-0.82-1.933-1.281-3.093-1.281H307.775z"/>
	</defs>
	<clipPath id="SVGID_32_">
		<use xlink:href="#SVGID_31_"  overflow="visible"/>
	</clipPath>
	
		<linearGradient id="SVGID_33_" gradientUnits="userSpaceOnUse" x1="1.395089e-005" y1="1200" x2="1" y2="1200" gradientTransform="matrix(0 8.75 -8.75 0 10812.1504 435.2749)">
		<stop  offset="0" style="stop-color:#FAC86A"/>
		<stop  offset="1" style="stop-color:#F1674C"/>
	</linearGradient>
	<rect x="303.4" y="435.275" clip-path="url(#SVGID_32_)" fill="url(#SVGID_33_)" width="17.5" height="8.75"/>
</g>
<g>
	<defs>
		<path id="SVGID_34_" d="M245.925,403.026c-8.763,3.292-16.067,9.597-20.602,17.786c-4.534,8.19-6.003,17.726-4.143,26.901
			c1.86,9.174,6.928,17.385,14.295,23.161c7.366,5.775,16.55,8.738,25.903,8.355c9.353-0.382,18.264-4.084,25.134-10.442
			c1.274-1.178,2.472-2.434,3.588-3.762c0.358-0.454,0.624-0.972,0.78-1.528c0.158-0.557,0.202-1.138,0.133-1.711
			c-0.069-0.574-0.251-1.128-0.535-1.631c-0.285-0.503-0.666-0.944-1.122-1.299c-0.442-0.368-0.952-0.646-1.502-0.817
			c-0.549-0.17-1.127-0.231-1.7-0.178c-0.573,0.052-1.13,0.218-1.639,0.486c-0.509,0.269-0.96,0.635-1.328,1.078
			c-0.861,1.029-1.782,2.008-2.756,2.931c-5.338,4.95-12.265,7.836-19.539,8.142c-7.273,0.305-14.418-1.991-20.152-6.476
			c-5.734-4.485-9.683-10.865-11.139-17.999c-1.455-7.133-0.322-14.552,3.196-20.925c3.519-6.373,9.193-11.285,16.004-13.853
			c6.812-2.569,14.316-2.627,21.167-0.165c6.85,2.463,12.6,7.286,16.217,13.604c3.619,6.318,4.866,13.717,3.521,20.872
			c-0.22,1.16,0.029,2.361,0.694,3.337c0.664,0.977,1.689,1.649,2.85,1.87c1.16,0.22,2.36-0.03,3.337-0.694
			c0.976-0.665,1.649-1.69,1.869-2.851c1.743-9.197,0.152-18.714-4.487-26.844s-12.023-14.343-20.827-17.522
			c-4.322-1.56-8.849-2.34-13.373-2.34C255.077,400.512,250.386,401.35,245.925,403.026"/>
	</defs>
	<clipPath id="SVGID_35_">
		<use xlink:href="#SVGID_34_"  overflow="visible"/>
	</clipPath>
	
		<linearGradient id="SVGID_36_" gradientUnits="userSpaceOnUse" x1="3.100197e-006" y1="1200.0001" x2="1" y2="1200.0001" gradientTransform="matrix(0 78.75 -78.75 0 94759.8281 400.5118)">
		<stop  offset="0" style="stop-color:#FAC86A"/>
		<stop  offset="1" style="stop-color:#F1674C"/>
	</linearGradient>
	<rect x="219.32" y="400.512" clip-path="url(#SVGID_35_)" fill="url(#SVGID_36_)" width="80.879" height="79.1"/>
</g>
<g>
	<defs>
		<path id="SVGID_37_" d="M299.948,394.811c-0.603,0.024-1.194,0.171-1.738,0.434c-0.541,0.262-1.024,0.634-1.416,1.092
			l-6.213,6.168c-0.41,0.408-0.735,0.891-0.957,1.425c-0.223,0.533-0.337,1.105-0.337,1.681c0,0.579,0.114,1.152,0.337,1.684
			c0.222,0.533,0.547,1.017,0.957,1.424c0.409,0.405,0.894,0.726,1.427,0.944c0.533,0.217,1.104,0.328,1.679,0.324
			c0.576,0.004,1.147-0.107,1.68-0.324c0.533-0.218,1.017-0.539,1.427-0.944l6.168-6.214c0.458-0.391,0.83-0.874,1.093-1.417
			c0.263-0.542,0.41-1.134,0.433-1.736c0.024-0.603-0.078-1.203-0.298-1.765c-0.22-0.562-0.553-1.071-0.98-1.498
			c-0.426-0.426-0.936-0.759-1.497-0.979c-0.509-0.2-1.051-0.302-1.596-0.302C300.061,394.808,300.005,394.809,299.948,394.811"/>
	</defs>
	<clipPath id="SVGID_38_">
		<use xlink:href="#SVGID_37_"  overflow="visible"/>
	</clipPath>
	
		<linearGradient id="SVGID_39_" gradientUnits="userSpaceOnUse" x1="2.010476e-005" y1="1199.9993" x2="1.0003" y2="1199.9993" gradientTransform="matrix(0 15.1793 -15.1793 0 18512.0254 394.8077)">
		<stop  offset="0" style="stop-color:#FAC86A"/>
		<stop  offset="1" style="stop-color:#F1674C"/>
	</linearGradient>
	<rect x="289.287" y="394.808" clip-path="url(#SVGID_38_)" fill="url(#SVGID_39_)" width="15.225" height="15.183"/>
</g>
<g>
	<defs>
		<path id="SVGID_40_" d="M222.506,470.581l-6.169,6.213c-0.814,0.818-1.272,1.928-1.272,3.084s0.458,2.265,1.272,3.084
			c0.409,0.406,0.894,0.727,1.427,0.944c0.533,0.218,1.104,0.328,1.679,0.325c1.149-0.005,2.249-0.46,3.063-1.269l6.213-6.168
			c0.824-0.824,1.287-1.942,1.287-3.107c0-1.165-0.463-2.282-1.287-3.106c-0.824-0.824-1.942-1.287-3.106-1.287
			C224.448,469.294,223.331,469.757,222.506,470.581"/>
	</defs>
	<clipPath id="SVGID_41_">
		<use xlink:href="#SVGID_40_"  overflow="visible"/>
	</clipPath>
	
		<linearGradient id="SVGID_42_" gradientUnits="userSpaceOnUse" x1="8.172321e-006" y1="1200" x2="1.0002" y2="1200" gradientTransform="matrix(0 14.937 -14.937 0 18146.9863 469.2939)">
		<stop  offset="0" style="stop-color:#FAC86A"/>
		<stop  offset="1" style="stop-color:#F1674C"/>
	</linearGradient>
	<rect x="215.065" y="469.294" clip-path="url(#SVGID_41_)" fill="url(#SVGID_42_)" width="14.941" height="14.94"/>
</g>
<g>
	<defs>
		<path id="SVGID_43_" d="M219.492,395.288c-1.101,0.042-2.146,0.499-2.925,1.277c-0.779,0.78-1.236,1.825-1.278,2.926
			c-0.043,1.101,0.332,2.177,1.048,3.014l6.169,6.212c0.409,0.406,0.894,0.727,1.428,0.945c0.531,0.218,1.103,0.328,1.679,0.325
			c0.575,0.003,1.146-0.107,1.679-0.325c0.533-0.218,1.018-0.539,1.427-0.945c0.41-0.406,0.735-0.89,0.957-1.423
			c0.223-0.533,0.337-1.105,0.337-1.683c0-0.577-0.114-1.149-0.337-1.682c-0.222-0.533-0.547-1.017-0.957-1.424l-6.213-6.168
			c-0.793-0.679-1.802-1.052-2.843-1.052C219.606,395.285,219.549,395.286,219.492,395.288"/>
	</defs>
	<clipPath id="SVGID_44_">
		<use xlink:href="#SVGID_43_"  overflow="visible"/>
	</clipPath>
	
		<linearGradient id="SVGID_45_" gradientUnits="userSpaceOnUse" x1="2.490825e-005" y1="1200.0013" x2="1.0002" y2="1200.0013" gradientTransform="matrix(0 14.7024 -14.7024 0 17865.5195 395.2846)">
		<stop  offset="0" style="stop-color:#FAC86A"/>
		<stop  offset="1" style="stop-color:#F1674C"/>
	</linearGradient>
	<rect x="215.246" y="395.285" clip-path="url(#SVGID_44_)" fill="url(#SVGID_45_)" width="14.767" height="14.705"/>
</g>
<g>
	<defs>
		<path id="SVGID_46_" d="M290.581,470.581c-0.824,0.824-1.287,1.941-1.287,3.106c0,1.165,0.463,2.283,1.287,3.107l6.213,6.168
			c0.813,0.809,1.914,1.264,3.062,1.269c0.576,0.003,1.147-0.107,1.68-0.325c0.533-0.217,1.018-0.538,1.426-0.944
			c0.815-0.819,1.273-1.928,1.273-3.084s-0.458-2.266-1.273-3.084l-6.168-6.213c-0.824-0.824-1.942-1.287-3.107-1.287
			C292.522,469.294,291.405,469.757,290.581,470.581"/>
	</defs>
	<clipPath id="SVGID_47_">
		<use xlink:href="#SVGID_46_"  overflow="visible"/>
	</clipPath>
	
		<linearGradient id="SVGID_48_" gradientUnits="userSpaceOnUse" x1="8.172321e-006" y1="1200" x2="1.0002" y2="1200" gradientTransform="matrix(0 14.937 -14.937 0 18221.2148 469.2939)">
		<stop  offset="0" style="stop-color:#FAC86A"/>
		<stop  offset="1" style="stop-color:#F1674C"/>
	</linearGradient>
	<rect x="289.294" y="469.294" clip-path="url(#SVGID_47_)" fill="url(#SVGID_48_)" width="14.941" height="14.94"/>
</g>
<g>
	<defs>
		<path id="SVGID_49_" d="M1090.821,428.558c-4.76-3.692-10.34-6.189-16.271-7.283c2.42-2.507,5.53-4.237,8.93-4.967
			c3.41-0.729,6.95-0.428,10.19,0.87c3.23,1.297,5.999,3.528,7.96,6.409c1.95,2.881,3.009,6.281,3.02,9.763
			c-0.011,1.175-0.12,2.347-0.35,3.5c-0.44,2.01-1.239,3.923-2.361,5.644C1099.4,437.028,1095.59,432.249,1090.821,428.558
			 M1078.36,408.669c-5.86,2.081-10.79,6.177-13.921,11.556c-19.769,0.35-36.05,13.781-38.279,30.932
			c-4.771,0.623-9.16,2.909-12.41,6.454c-3.25,3.545-5.14,8.123-5.349,12.927c0.309,5.506,2.779,10.667,6.879,14.356
			c4.1,3.689,9.49,5.606,14.99,5.331h43.749c1.17,0,2.281-0.461,3.101-1.281c0.819-0.82,1.281-1.933,1.281-3.094
			c0-1.16-0.462-2.272-1.281-3.093c-0.82-0.821-1.931-1.282-3.101-1.282h-43.749c-3.18,0.257-6.34-0.744-8.79-2.789
			c-2.45-2.045-4.01-4.97-4.33-8.148c0.32-3.179,1.88-6.103,4.33-8.148c2.45-2.045,5.61-3.046,8.79-2.79
			c1.17,0,2.28-0.461,3.1-1.281c0.819-0.82,1.281-1.933,1.281-3.094c0-14.481,13.738-26.25,30.619-26.25
			c6.27-0.223,12.449,1.483,17.72,4.886c5.269,3.403,9.36,8.341,11.729,14.146c0.261,0.789,0.741,1.489,1.38,2.015
			c0.641,0.526,1.42,0.859,2.25,0.96c1.601,0.212,3.171,0.608,4.681,1.181c2.939,1.019,5.5,2.9,7.35,5.398
			c1.851,2.498,2.9,5.496,3.021,8.602c-0.312,4.342-2.33,8.385-5.601,11.251c-3.28,2.867-7.55,4.327-11.9,4.061h-4.381
			c-1.159,0-2.269,0.461-3.09,1.282c-0.819,0.821-1.278,1.933-1.278,3.093c0,1.161,0.459,2.274,1.278,3.094
			c0.821,0.82,1.931,1.281,3.09,1.281h4.381c6.67,0.273,13.17-2.105,18.09-6.614c4.92-4.509,7.85-10.782,8.161-17.448
			c-0.071-4.127-1.212-8.164-3.321-11.71c-2.11-3.545-5.121-6.478-8.71-8.503c1.29-2.294,2.22-4.773,2.75-7.35
			c1.24-6.098,0.26-12.435-2.75-17.881c-3-5.446-7.85-9.647-13.66-11.854c-3-1.138-6.157-1.707-9.316-1.707
			C1084.175,407.158,1081.204,407.661,1078.36,408.669"/>
	</defs>
	<clipPath id="SVGID_50_">
		<use xlink:href="#SVGID_49_"  overflow="visible"/>
	</clipPath>
	
		<linearGradient id="SVGID_51_" gradientUnits="userSpaceOnUse" x1="3.672695e-006" y1="1200" x2="1" y2="1200" gradientTransform="matrix(0 83.0932 -83.0932 0 100777.0625 407.1578)">
		<stop  offset="0" style="stop-color:#A1D2FA"/>
		<stop  offset="1" style="stop-color:#DCE2F6"/>
	</linearGradient>
	<rect x="1008.401" y="407.158" clip-path="url(#SVGID_50_)" fill="url(#SVGID_51_)" width="113.75" height="83.342"/>
</g>
<g>
	<defs>
		<path id="SVGID_52_" d="M1078.36,408.669c-5.86,2.081-10.79,6.177-13.921,11.556c1.741-0.066,6.191,0.051,10.111,1.05
			c2.42-2.507,5.53-4.237,8.93-4.967c3.41-0.729,6.95-0.428,10.19,0.87c3.23,1.297,5.999,3.528,7.96,6.409
			c1.95,2.881,3.009,6.281,3.02,9.763c-0.011,1.175-0.12,2.347-0.35,3.5c-0.44,2.01-1.239,3.923-2.361,5.644
			c1.811,0.569,5.971,2.056,8.181,3.456c1.29-2.294,2.22-4.773,2.76-7.35c1.23-6.098,0.25-12.435-2.76-17.881
			c-3-5.446-7.85-9.647-13.66-11.854c-3-1.138-6.157-1.707-9.316-1.707C1084.175,407.158,1081.204,407.661,1078.36,408.669"/>
	</defs>
	<clipPath id="SVGID_53_">
		<use xlink:href="#SVGID_52_"  overflow="visible"/>
	</clipPath>
	
		<linearGradient id="SVGID_54_" gradientUnits="userSpaceOnUse" x1="7.866940e-006" y1="1199.9908" x2="1" y2="1199.9908" gradientTransform="matrix(0 38.7922 -38.7922 0 47639.5391 407.1578)">
		<stop  offset="0" style="stop-color:#FAC86A"/>
		<stop  offset="1" style="stop-color:#F1674C"/>
	</linearGradient>
	<rect x="1064.439" y="407.158" clip-path="url(#SVGID_53_)" fill="url(#SVGID_54_)" width="49.671" height="38.792"/>
</g>
<g>
	<defs>
		<path id="SVGID_55_" d="M1122.151,428.975c-1.161,0-2.271,0.461-3.09,1.282c-0.821,0.82-1.292,1.933-1.292,3.093
			c0,1.16,0.471,2.273,1.292,3.094c0.819,0.82,1.929,1.281,3.09,1.281h4.368c1.17,0,2.281-0.461,3.101-1.281
			c0.82-0.821,1.28-1.934,1.28-3.094c0-1.16-0.46-2.273-1.28-3.093c-0.82-0.821-1.931-1.282-3.101-1.282H1122.151z"/>
	</defs>
	<clipPath id="SVGID_56_">
		<use xlink:href="#SVGID_55_"  overflow="visible"/>
	</clipPath>
	
		<linearGradient id="SVGID_57_" gradientUnits="userSpaceOnUse" x1="1.395089e-005" y1="1200.0001" x2="1" y2="1200.0001" gradientTransform="matrix(0 8.75 -8.75 0 11624.335 428.9749)">
		<stop  offset="0" style="stop-color:#FAC86A"/>
		<stop  offset="1" style="stop-color:#F1674C"/>
	</linearGradient>
	<rect x="1117.769" y="428.975" clip-path="url(#SVGID_56_)" fill="url(#SVGID_57_)" width="13.131" height="8.75"/>
</g>
<g>
	<defs>
		<path id="SVGID_58_" d="M1084.061,390.882c-0.821,0.82-1.292,1.933-1.292,3.093v4.375c0,1.159,0.471,2.273,1.292,3.093
			c0.819,0.821,1.929,1.282,3.09,1.282c1.16,0,2.269-0.461,3.089-1.282c0.82-0.82,1.279-1.934,1.279-3.093v-4.375
			c0-1.16-0.459-2.273-1.279-3.093c-0.82-0.821-1.929-1.282-3.089-1.282C1085.99,389.6,1084.88,390.061,1084.061,390.882"/>
	</defs>
	<clipPath id="SVGID_59_">
		<use xlink:href="#SVGID_58_"  overflow="visible"/>
	</clipPath>
	
		<linearGradient id="SVGID_60_" gradientUnits="userSpaceOnUse" x1="9.300596e-006" y1="1200.0001" x2="1" y2="1200.0001" gradientTransform="matrix(0 13.125 -13.125 0 16837.1445 389.5999)">
		<stop  offset="0" style="stop-color:#FAC86A"/>
		<stop  offset="1" style="stop-color:#F1674C"/>
	</linearGradient>
	<rect x="1082.769" y="389.6" clip-path="url(#SVGID_59_)" fill="url(#SVGID_60_)" width="8.75" height="13.125"/>
</g>
<g>
	<defs>
		<path id="SVGID_61_" d="M1111.389,402.463l-3.069,3.15c-0.589,0.619-0.98,1.397-1.131,2.238c-0.158,0.841-0.059,1.709,0.281,2.495
			c0.33,0.787,0.89,1.458,1.6,1.931c0.71,0.473,1.55,0.726,2.399,0.729c0.581-0.002,1.161-0.119,1.692-0.344
			c0.529-0.226,1.018-0.555,1.419-0.968l3.06-3.15c0.71-0.847,1.07-1.929,1.011-3.031c-0.052-1.101-0.531-2.14-1.321-2.909
			c-0.79-0.769-1.839-1.21-2.94-1.237c-0.035-0.001-0.069-0.001-0.104-0.001C1113.222,401.366,1112.184,401.754,1111.389,402.463"/>
	</defs>
	<clipPath id="SVGID_62_">
		<use xlink:href="#SVGID_61_"  overflow="visible"/>
	</clipPath>
	
		<linearGradient id="SVGID_63_" gradientUnits="userSpaceOnUse" x1="3.146081e-005" y1="1200.0013" x2="1" y2="1200.0013" gradientTransform="matrix(0 11.6402 -11.6402 0 15081.1563 401.3657)">
		<stop  offset="0" style="stop-color:#FAC86A"/>
		<stop  offset="1" style="stop-color:#F1674C"/>
	</linearGradient>
	<rect x="1107.031" y="401.366" clip-path="url(#SVGID_62_)" fill="url(#SVGID_63_)" width="11.679" height="11.64"/>
</g>
<g>
	<defs>
		<path id="SVGID_64_" d="M1058.14,402.472c-0.85,0.744-1.381,1.787-1.47,2.911c-0.1,1.123,0.241,2.24,0.95,3.118l2.93,2.975
			c0.401,0.461,0.9,0.832,1.46,1.088c0.561,0.256,1.16,0.392,1.78,0.399c1.08,0.01,2.121-0.38,2.93-1.094
			c0.431-0.383,0.79-0.848,1.04-1.369c0.249-0.52,0.401-1.086,0.429-1.664c0.031-0.579-0.049-1.156-0.239-1.703
			c-0.19-0.545-0.49-1.047-0.879-1.476l-2.891-2.931c-0.78-0.813-1.84-1.294-2.97-1.341c-0.061-0.002-0.122-0.004-0.183-0.004
			C1059.962,401.381,1058.935,401.767,1058.14,402.472"/>
	</defs>
	<clipPath id="SVGID_65_">
		<use xlink:href="#SVGID_64_"  overflow="visible"/>
	</clipPath>
	
		<linearGradient id="SVGID_66_" gradientUnits="userSpaceOnUse" x1="-5.269844e-006" y1="1200.0026" x2="1.0009" y2="1200.0026" gradientTransform="matrix(0 11.582 -11.582 0 14960.7852 401.3811)">
		<stop  offset="0" style="stop-color:#FAC86A"/>
		<stop  offset="1" style="stop-color:#F1674C"/>
	</linearGradient>
	<rect x="1056.57" y="401.381" clip-path="url(#SVGID_65_)" fill="url(#SVGID_66_)" width="11.65" height="11.592"/>
</g>
<g>
	<defs>
		<path id="SVGID_67_" d="M549.068,699.211c-5.514,3.85-10.287,8.668-14.086,14.218c-0.375,0.472-0.649,1.016-0.805,1.598
			c-0.155,0.582-0.188,1.19-0.098,1.786c0.091,0.596,0.304,1.167,0.625,1.676c0.322,0.509,0.746,0.946,1.243,1.286
			c0.499,0.338,1.061,0.57,1.655,0.68c0.592,0.111,1.2,0.098,1.787-0.038c0.588-0.135,1.14-0.391,1.624-0.75
			c0.484-0.36,0.888-0.814,1.188-1.337c2.627-3.808,5.796-7.213,9.406-10.107c13.561,10.982,17.85,25.769,13.869,33.863
			c-1.334,2.553-3.32,4.707-5.756,6.243c-2.436,1.537-5.235,2.403-8.113,2.507c-2.878-0.104-5.678-0.97-8.113-2.507
			c-2.436-1.536-4.422-3.69-5.757-6.243c-1.202-2.611-1.7-5.493-1.443-8.356c0.046-0.574-0.021-1.153-0.199-1.701
			c-0.177-0.549-0.461-1.058-0.835-1.495c-0.373-0.439-0.83-0.799-1.343-1.062s-1.073-0.421-1.648-0.467
			c-0.574-0.046-1.152,0.021-1.701,0.199c-0.548,0.177-1.056,0.461-1.495,0.835c-0.438,0.373-0.799,0.83-1.062,1.343
			c-0.262,0.514-0.421,1.073-0.467,1.649c-0.396,4.422,0.373,8.873,2.232,12.905c2.069,4.045,5.197,7.454,9.047,9.865
			c3.852,2.411,8.285,3.735,12.828,3.829c4.543-0.094,8.975-1.418,12.827-3.829c3.851-2.411,6.978-5.82,9.048-9.865
			c6.518-13.957-1.575-34.082-19.382-46.725c-0.741-0.528-1.628-0.811-2.537-0.811C550.697,698.4,549.81,698.683,549.068,699.211"/>
	</defs>
	<clipPath id="SVGID_68_">
		<use xlink:href="#SVGID_67_"  overflow="visible"/>
	</clipPath>
	
		<linearGradient id="SVGID_69_" gradientUnits="userSpaceOnUse" x1="1.495227e-006" y1="1199.9674" x2="1" y2="1199.9674" gradientTransform="matrix(0 61.23 -61.23 0 74027.5781 698.3999)">
		<stop  offset="0" style="stop-color:#7CB1F8"/>
		<stop  offset="1" style="stop-color:#3495E3"/>
	</linearGradient>
	<rect x="527.148" y="698.4" clip-path="url(#SVGID_68_)" fill="url(#SVGID_69_)" width="52.896" height="61.23"/>
</g>
<g>
	<defs>
		<path id="SVGID_70_" d="M512.014,747.16c-22.926,15.312-33.995,40.425-25.201,57.224c2.752,4.93,6.751,9.045,11.597,11.942
			c4.845,2.894,10.366,4.465,16.009,4.553c5.635-0.081,11.149-1.637,15.995-4.516c4.844-2.879,8.848-6.979,11.611-11.89
			c2.264-4.383,3.306-9.295,3.019-14.22c0-1.16-0.461-2.271-1.281-3.092c-0.821-0.821-1.933-1.282-3.094-1.282
			c-1.16,0-2.273,0.461-3.093,1.282c-0.821,0.821-1.282,1.932-1.282,3.092c0.25,3.443-0.429,6.887-1.968,9.976
			c-2.007,3.535-4.894,6.492-8.383,8.578c-3.489,2.085-7.46,3.23-11.524,3.322c-4.039-0.081-7.99-1.203-11.468-3.257
			c-3.48-2.054-6.371-4.97-8.394-8.467c-5.557-10.631,0.568-30.145,19.862-44.189c6.957,4.939,12.775,11.308,17.063,18.682
			c0.287,0.5,0.67,0.938,1.127,1.29c0.456,0.352,0.978,0.61,1.534,0.761c0.557,0.15,1.138,0.189,1.709,0.116
			c0.571-0.075,1.124-0.261,1.623-0.548c0.5-0.287,0.939-0.671,1.291-1.127c0.351-0.457,0.61-0.978,0.76-1.536
			c0.151-0.556,0.19-1.136,0.116-1.709c-0.074-0.571-0.26-1.122-0.548-1.621c-5.463-9.432-13.078-17.437-22.225-23.364
			c-0.719-0.479-1.564-0.736-2.428-0.736C513.577,746.424,512.732,746.681,512.014,747.16"/>
	</defs>
	<clipPath id="SVGID_71_">
		<use xlink:href="#SVGID_70_"  overflow="visible"/>
	</clipPath>
	
		<linearGradient id="SVGID_72_" gradientUnits="userSpaceOnUse" x1="-1.188666e-005" y1="1200.0372" x2="1" y2="1200.0372" gradientTransform="matrix(0 74.454 -74.454 0 89859.2969 746.4249)">
		<stop  offset="0" style="stop-color:#7CB1F8"/>
		<stop  offset="1" style="stop-color:#3495E3"/>
	</linearGradient>
	<rect x="478.019" y="746.424" clip-path="url(#SVGID_71_)" fill="url(#SVGID_72_)" width="67.312" height="74.455"/>
</g>
<g>
	<defs>
		<path id="SVGID_73_" d="M498.577,782.44c-0.902,0.72-1.482,1.768-1.614,2.915c-0.355,3.025-0.037,6.094,0.932,8.982
			c0.968,2.889,2.562,5.529,4.668,7.731c3.026,3.047,6.953,5.041,11.2,5.687h0.656c1.16,0.087,2.308-0.291,3.19-1.049
			s1.426-1.838,1.513-2.998c0.087-1.161-0.29-2.308-1.049-3.19s-1.838-1.427-2.998-1.513c-2.371-0.355-4.573-1.442-6.3-3.106
			c-1.164-1.279-2.042-2.791-2.578-4.435c-0.535-1.644-0.715-3.384-0.528-5.103c0.067-0.575,0.019-1.158-0.141-1.714
			c-0.16-0.556-0.429-1.076-0.791-1.527c-0.363-0.452-0.811-0.827-1.319-1.105c-0.509-0.277-1.067-0.449-1.643-0.51
			c-0.155-0.017-0.31-0.025-0.464-0.025C500.321,781.48,499.357,781.815,498.577,782.44"/>
	</defs>
	<clipPath id="SVGID_74_">
		<use xlink:href="#SVGID_73_"  overflow="visible"/>
	</clipPath>
	
		<linearGradient id="SVGID_75_" gradientUnits="userSpaceOnUse" x1="0" y1="1200.0027" x2="1" y2="1200.0027" gradientTransform="matrix(0 26.2872 -26.2872 0 32052.5801 781.48)">
		<stop  offset="0" style="stop-color:#7CB1F8"/>
		<stop  offset="1" style="stop-color:#3495E3"/>
	</linearGradient>
	<rect x="496.608" y="781.48" clip-path="url(#SVGID_74_)" fill="url(#SVGID_75_)" width="22.601" height="26.362"/>
</g>
<g>
	<defs>
		<path id="SVGID_76_" d="M1327.65,718c-1.09,0-2.131,0.461-2.9,1.281c-0.77,0.82-1.2,1.933-1.2,3.094c0,1.16,0.43,2.274,1.2,3.094
			c0.769,0.82,1.81,1.281,2.9,1.281h6.14c1.63,0,3.191,0.691,4.34,1.922c1.15,1.231,1.8,2.901,1.8,4.639
			c0,1.742-0.65,3.41-1.8,4.642c-1.149,1.231-2.71,1.922-4.34,1.922h-47.09c-1.09,0-2.13,0.461-2.9,1.282
			c-0.77,0.82-1.2,1.933-1.2,3.093s0.43,2.273,1.2,3.094c0.77,0.82,1.81,1.281,2.9,1.281h47.09c3.8,0,7.44-1.613,10.13-4.486
			c2.691-2.872,4.2-6.765,4.2-10.828c0-4.06-1.509-7.954-4.2-10.826c-2.69-2.872-6.33-4.485-10.13-4.485H1327.65z"/>
	</defs>
	<clipPath id="SVGID_77_">
		<use xlink:href="#SVGID_76_"  overflow="visible"/>
	</clipPath>
	
		<linearGradient id="SVGID_78_" gradientUnits="userSpaceOnUse" x1="3.985970e-006" y1="1200" x2="1" y2="1200" gradientTransform="matrix(0 30.625 -30.625 0 38065.3594 717.9999)">
		<stop  offset="0" style="stop-color:#9EA8E1"/>
		<stop  offset="1" style="stop-color:#D0D7F1"/>
	</linearGradient>
	<rect x="1282.6" y="718" clip-path="url(#SVGID_77_)" fill="url(#SVGID_78_)" width="65.52" height="30.625"/>
</g>
<g>
	<defs>
		<path id="SVGID_79_" d="M1376.78,735.5c-1.08,0-2.12,0.461-2.89,1.281c-0.77,0.821-1.201,1.934-1.201,3.094
			s0.431,2.273,1.201,3.093c0.77,0.821,1.81,1.282,2.89,1.282h6.15c1.631,0,3.19,0.691,4.34,1.921c1.15,1.233,1.8,2.901,1.8,4.641
			s-0.65,3.41-1.8,4.641c-1.15,1.23-2.709,1.922-4.34,1.922h-43c-1.09,0-2.13,0.461-2.9,1.281c-0.76,0.82-1.2,1.933-1.2,3.094
			c0,1.16,0.44,2.274,1.2,3.094c0.77,0.82,1.81,1.281,2.9,1.281h43c3.801,0,7.44-1.613,10.13-4.485c2.69-2.872,4.2-6.766,4.2-10.828
			c0-4.061-1.51-7.954-4.2-10.826c-2.69-2.873-6.329-4.486-10.13-4.486H1376.78z"/>
	</defs>
	<clipPath id="SVGID_80_">
		<use xlink:href="#SVGID_79_"  overflow="visible"/>
	</clipPath>
	
		<linearGradient id="SVGID_81_" gradientUnits="userSpaceOnUse" x1="3.985970e-006" y1="1200" x2="1" y2="1200" gradientTransform="matrix(0 30.625 -30.625 0 38116.5469 735.4999)">
		<stop  offset="0" style="stop-color:#9EA8E1"/>
		<stop  offset="1" style="stop-color:#D0D7F1"/>
	</linearGradient>
	<rect x="1335.83" y="735.5" clip-path="url(#SVGID_80_)" fill="url(#SVGID_81_)" width="61.43" height="30.625"/>
</g>
<g>
	<defs>
		<path id="SVGID_82_" d="M1307.17,757.375c-1.09,0-2.13,0.461-2.901,1.281c-0.759,0.82-1.189,1.933-1.189,3.094
			c0,1.16,0.43,2.274,1.189,3.094c0.771,0.82,1.811,1.281,2.901,1.281h16.38c1.09,0,2.129-0.461,2.901-1.281
			c0.759-0.82,1.199-1.934,1.199-3.094c0-1.161-0.44-2.274-1.199-3.094c-0.772-0.82-1.811-1.281-2.901-1.281H1307.17z"/>
	</defs>
	<clipPath id="SVGID_83_">
		<use xlink:href="#SVGID_82_"  overflow="visible"/>
	</clipPath>
	
		<linearGradient id="SVGID_84_" gradientUnits="userSpaceOnUse" x1="1.046317e-005" y1="1200" x2="1" y2="1200" gradientTransform="matrix(0 8.75 -8.75 0 11815.3652 757.3749)">
		<stop  offset="0" style="stop-color:#9EA8E1"/>
		<stop  offset="1" style="stop-color:#D0D7F1"/>
	</linearGradient>
	<rect x="1303.08" y="757.375" clip-path="url(#SVGID_83_)" fill="url(#SVGID_84_)" width="24.57" height="8.75"/>
</g>
<g>
	<defs>
		<path id="SVGID_85_" d="M1360.41,770.5c-1.09,0-2.13,0.461-2.9,1.281c-0.77,0.821-1.199,1.934-1.199,3.094
			s0.429,2.273,1.199,3.093c0.77,0.821,1.81,1.282,2.9,1.282h22.52c1.631,0,3.19,0.691,4.34,1.922c1.15,1.232,1.8,2.9,1.8,4.639
			c0,1.741-0.65,3.411-1.8,4.642c-1.15,1.231-2.709,1.922-4.34,1.922h-6.14c-1.09,0-2.13,0.461-2.9,1.281s-1.201,1.934-1.201,3.094
			s0.431,2.273,1.201,3.094c0.77,0.82,1.81,1.281,2.9,1.281h6.14c3.801,0,7.44-1.613,10.13-4.485c2.69-2.872,4.2-6.766,4.2-10.829
			c0-4.06-1.51-7.953-4.2-10.826c-2.69-2.872-6.329-4.485-10.13-4.485H1360.41z"/>
	</defs>
	<clipPath id="SVGID_86_">
		<use xlink:href="#SVGID_85_"  overflow="visible"/>
	</clipPath>
	
		<linearGradient id="SVGID_87_" gradientUnits="userSpaceOnUse" x1="3.985970e-006" y1="1200" x2="1" y2="1200" gradientTransform="matrix(0 30.625 -30.625 0 38126.7852 770.4999)">
		<stop  offset="0" style="stop-color:#9EA8E1"/>
		<stop  offset="1" style="stop-color:#D0D7F1"/>
	</linearGradient>
	<rect x="1356.311" y="770.5" clip-path="url(#SVGID_86_)" fill="url(#SVGID_87_)" width="40.949" height="30.625"/>
</g>
<g>
	<defs>
		<path id="SVGID_88_" d="M1286.7,770.5c-1.09,0-2.13,0.461-2.9,1.281c-0.77,0.821-1.2,1.934-1.2,3.094s0.43,2.273,1.2,3.093
			c0.77,0.821,1.81,1.282,2.9,1.282h57.33c1.08,0,2.121-0.461,2.89-1.282c0.77-0.82,1.2-1.933,1.2-3.093s-0.43-2.273-1.2-3.094
			c-0.769-0.82-1.81-1.281-2.89-1.281H1286.7z"/>
	</defs>
	<clipPath id="SVGID_89_">
		<use xlink:href="#SVGID_88_"  overflow="visible"/>
	</clipPath>
	
		<linearGradient id="SVGID_90_" gradientUnits="userSpaceOnUse" x1="1.046317e-005" y1="1200" x2="1" y2="1200" gradientTransform="matrix(0 8.75 -8.75 0 11815.3604 770.4999)">
		<stop  offset="0" style="stop-color:#9EA8E1"/>
		<stop  offset="1" style="stop-color:#D0D7F1"/>
	</linearGradient>
	<rect x="1282.6" y="770.5" clip-path="url(#SVGID_89_)" fill="url(#SVGID_90_)" width="65.52" height="8.75"/>
</g>
<g>
	<defs>
		<path id="SVGID_91_" d="M1311.26,788c-1.081,0-2.12,0.461-2.89,1.281c-0.771,0.82-1.2,1.934-1.2,3.094s0.429,2.273,1.2,3.094
			c0.77,0.82,1.809,1.281,2.89,1.281h24.57c1.09,0,2.13-0.461,2.9-1.281c0.77-0.821,1.2-1.934,1.2-3.094s-0.43-2.274-1.2-3.094
			s-1.81-1.281-2.9-1.281H1311.26z"/>
	</defs>
	<clipPath id="SVGID_92_">
		<use xlink:href="#SVGID_91_"  overflow="visible"/>
	</clipPath>
	
		<linearGradient id="SVGID_93_" gradientUnits="userSpaceOnUse" x1="1.046317e-005" y1="1200" x2="1" y2="1200" gradientTransform="matrix(0 8.75 -8.75 0 11823.5498 787.9999)">
		<stop  offset="0" style="stop-color:#9EA8E1"/>
		<stop  offset="1" style="stop-color:#D0D7F1"/>
	</linearGradient>
	<rect x="1307.17" y="788" clip-path="url(#SVGID_92_)" fill="url(#SVGID_93_)" width="32.76" height="8.75"/>
</g>
<g>
	<defs>
		<path id="SVGID_94_" d="M1286.7,788c-1.09,0-2.13,0.461-2.9,1.281c-0.77,0.82-1.2,1.934-1.2,3.094s0.43,2.273,1.2,3.094
			c0.77,0.82,1.81,1.281,2.9,1.281h8.189c1.08,0,2.121-0.461,2.891-1.281c0.77-0.821,1.201-1.934,1.201-3.094
			s-0.431-2.274-1.201-3.094s-1.811-1.281-2.891-1.281H1286.7z"/>
	</defs>
	<clipPath id="SVGID_95_">
		<use xlink:href="#SVGID_94_"  overflow="visible"/>
	</clipPath>
	
		<linearGradient id="SVGID_96_" gradientUnits="userSpaceOnUse" x1="1.046317e-005" y1="1200" x2="1" y2="1200" gradientTransform="matrix(0 8.75 -8.75 0 11790.79 787.9999)">
		<stop  offset="0" style="stop-color:#9EA8E1"/>
		<stop  offset="1" style="stop-color:#D0D7F1"/>
	</linearGradient>
	<rect x="1282.6" y="788" clip-path="url(#SVGID_95_)" fill="url(#SVGID_96_)" width="16.381" height="8.75"/>
</g>
<g>
	<defs>
		<path id="SVGID_97_" d="M259.93,698.418c-20.33,0-37.176,13.67-39.425,31.222c-4.799,0.628-9.224,2.926-12.498,6.49
			c-3.274,3.565-5.189,8.168-5.407,13.002c0.309,5.551,2.8,10.754,6.931,14.472c4.132,3.719,9.567,5.651,15.119,5.373h17.64
			c1.17,0,2.291-0.463,3.118-1.29c0.827-0.827,1.292-1.949,1.292-3.119c0-1.169-0.465-2.291-1.292-3.118
			c-0.827-0.827-1.948-1.292-3.118-1.292h-17.64c-3.21,0.259-6.392-0.751-8.865-2.812c-2.474-2.061-4.041-5.01-4.365-8.214
			c0.324-3.203,1.891-6.15,4.365-8.212c2.473-2.061,5.655-3.072,8.865-2.812c1.17,0,2.291-0.464,3.118-1.29
			c0.828-0.829,1.292-1.95,1.292-3.12c0-14.598,13.848-26.46,30.87-26.46c6.321-0.221,12.558,1.504,17.866,4.942
			c5.308,3.44,9.432,8.426,11.813,14.286c0.269,0.787,0.756,1.483,1.404,2.006c0.647,0.523,1.43,0.852,2.257,0.948
			c3.956,0.272,7.678,1.975,10.47,4.792c2.792,2.816,4.463,6.552,4.7,10.51c-0.317,4.377-2.347,8.452-5.649,11.343
			c-3.302,2.889-7.611,4.36-11.991,4.093h-30.87c-1.17,0-2.291,0.465-3.118,1.292c-0.827,0.827-1.292,1.949-1.292,3.118
			c0,1.17,0.465,2.292,1.292,3.119c0.827,0.827,1.948,1.29,3.118,1.29h30.87c6.721,0.276,13.277-2.121,18.236-6.667
			c4.958-4.545,7.915-10.867,8.224-17.588c-0.192-5.646-2.302-11.059-5.981-15.347c-3.679-4.289-8.709-7.198-14.261-8.245
			c-3.301-6.984-8.568-12.854-15.156-16.888c-6.244-3.824-13.418-5.842-20.725-5.842C260.735,698.4,260.333,698.406,259.93,698.418"
			/>
	</defs>
	<clipPath id="SVGID_98_">
		<use xlink:href="#SVGID_97_"  overflow="visible"/>
	</clipPath>
	
		<linearGradient id="SVGID_99_" gradientUnits="userSpaceOnUse" x1="4.322336e-006" y1="1200" x2="1" y2="1200" gradientTransform="matrix(0 70.6044 -70.6044 0 84985.1719 698.3997)">
		<stop  offset="0" style="stop-color:#9EA8E1"/>
		<stop  offset="1" style="stop-color:#D0D7F1"/>
	</linearGradient>
	<rect x="202.6" y="698.4" clip-path="url(#SVGID_98_)" fill="url(#SVGID_99_)" width="114.66" height="70.855"/>
</g>
<g>
	<defs>
		<path id="SVGID_100_" d="M222.666,812.636c-0.714-0.333-1.312-0.87-1.721-1.543c-1.542-2.425-0.705-8.555,3.705-13.803
			c1.783,1.768,3.073,3.974,3.738,6.396c0.664,2.423,0.684,4.976,0.055,7.407c-0.438,0.665-1.047,1.198-1.764,1.543
			c-0.631,0.285-1.315,0.432-2.007,0.432C223.981,813.068,223.297,812.921,222.666,812.636 M221.784,787.676
			c-9.173,7.762-12.965,20.022-8.6,27.739c1.305,2.288,3.295,4.108,5.689,5.204c1.81,0.844,3.781,1.281,5.777,1.281
			c1.997,0,3.968-0.437,5.778-1.281c2.394-1.096,4.384-2.916,5.688-5.204c4.366-7.717,0.574-19.977-8.599-27.739
			c-0.799-0.683-1.815-1.058-2.867-1.058C223.599,786.618,222.583,786.993,221.784,787.676"/>
	</defs>
	<clipPath id="SVGID_101_">
		<use xlink:href="#SVGID_100_"  overflow="visible"/>
	</clipPath>
	
		<linearGradient id="SVGID_102_" gradientUnits="userSpaceOnUse" x1="4.324803e-006" y1="1200" x2="1" y2="1200" gradientTransform="matrix(0 35.282 -35.282 0 42563.1016 786.6179)">
		<stop  offset="0" style="stop-color:#7CB1F8"/>
		<stop  offset="1" style="stop-color:#3495E3"/>
	</linearGradient>
	<rect x="208.819" y="786.618" clip-path="url(#SVGID_101_)" fill="url(#SVGID_102_)" width="31.663" height="35.282"/>
</g>
<g>
	<defs>
		<path id="SVGID_103_" d="M293.225,812.636c-0.712-0.333-1.312-0.87-1.72-1.543c-1.499-2.601-0.573-8.555,3.749-13.803
			c1.775,1.774,3.055,3.98,3.712,6.403c0.658,2.421,0.671,4.973,0.036,7.4c-0.438,0.665-1.047,1.198-1.764,1.543
			c-0.63,0.285-1.314,0.432-2.006,0.432C294.54,813.068,293.856,812.921,293.225,812.636 M292.342,787.676
			c-9.171,7.851-12.964,20.022-8.82,27.739c1.306,2.288,3.296,4.108,5.69,5.204c1.809,0.844,3.781,1.281,5.777,1.281
			c1.996,0,3.968-0.437,5.777-1.281c2.395-1.096,4.385-2.916,5.689-5.204c4.587-7.717,0.794-19.977-8.379-27.739
			c-0.798-0.683-1.815-1.058-2.866-1.058C294.16,786.618,293.142,786.993,292.342,787.676"/>
	</defs>
	<clipPath id="SVGID_104_">
		<use xlink:href="#SVGID_103_"  overflow="visible"/>
	</clipPath>
	
		<linearGradient id="SVGID_105_" gradientUnits="userSpaceOnUse" x1="4.324803e-006" y1="1199.9977" x2="1" y2="1199.9977" gradientTransform="matrix(0 35.282 -35.282 0 42633.5781 786.6179)">
		<stop  offset="0" style="stop-color:#7CB1F8"/>
		<stop  offset="1" style="stop-color:#3495E3"/>
	</linearGradient>
	<rect x="279.378" y="786.618" clip-path="url(#SVGID_104_)" fill="url(#SVGID_105_)" width="31.664" height="35.282"/>
</g>
<g>
	<defs>
		<path id="SVGID_106_" d="M257.945,803.817c-0.713-0.333-1.312-0.87-1.719-1.543c-1.5-2.603-0.573-8.557,3.748-13.804
			c1.775,1.773,3.055,3.981,3.713,6.402c0.658,2.422,0.67,4.973,0.036,7.402c-0.438,0.662-1.048,1.197-1.764,1.543
			c-0.631,0.283-1.315,0.43-2.007,0.43C259.26,804.247,258.577,804.1,257.945,803.817 M257.064,778.857
			c-9.173,7.849-12.966,20.02-8.6,27.738c1.305,2.288,3.295,4.108,5.689,5.203c1.809,0.844,3.781,1.281,5.777,1.281
			s3.968-0.437,5.777-1.281c2.395-1.095,4.385-2.915,5.689-5.203c4.366-7.718,0.574-19.977-8.599-27.738
			c-0.799-0.684-1.816-1.06-2.867-1.06S257.863,778.173,257.064,778.857"/>
	</defs>
	<clipPath id="SVGID_107_">
		<use xlink:href="#SVGID_106_"  overflow="visible"/>
	</clipPath>
	
		<linearGradient id="SVGID_108_" gradientUnits="userSpaceOnUse" x1="2.594887e-006" y1="1200" x2="1" y2="1200" gradientTransform="matrix(0 35.282 -35.282 0 42598.3086 777.7969)">
		<stop  offset="0" style="stop-color:#7CB1F8"/>
		<stop  offset="1" style="stop-color:#3495E3"/>
	</linearGradient>
	<rect x="244.098" y="777.797" clip-path="url(#SVGID_107_)" fill="url(#SVGID_108_)" width="31.664" height="35.282"/>
</g>
<g>
	<defs>
		<path id="SVGID_109_" d="M516.268,475.857c-4.744-1.966-9.052-4.852-12.673-8.493c-15.233-15.237-15.233-40.035,0-55.273
			c2.943-2.939,6.341-5.385,10.063-7.243c-0.546,7.03,0.435,14.095,2.871,20.712c2.437,6.616,6.273,12.629,11.248,17.627
			c4.986,4.99,10.997,8.836,17.617,11.275c6.62,2.439,13.69,3.41,20.722,2.848c-1.869,3.716-4.316,7.111-7.25,10.059
			c-3.62,3.64-7.927,6.526-12.669,8.491c-4.743,1.964-9.828,2.969-14.962,2.955c-0.034,0-0.068,0-0.102,0
			C526.033,478.815,520.982,477.809,516.268,475.857 M518.612,392.566c-8.29,2.209-15.853,6.559-21.93,12.614
			c-19.043,19.043-19.043,50.039,0,69.091c4.526,4.552,9.91,8.161,15.841,10.618c5.93,2.457,12.288,3.713,18.707,3.697
			c6.418,0.018,12.775-1.237,18.704-3.694c5.928-2.456,11.311-6.064,15.835-10.615c6.059-6.079,10.411-13.646,12.62-21.94
			c0.218-0.827,0.216-1.698-0.008-2.525c-0.221-0.826-0.657-1.58-1.262-2.185c-0.606-0.606-1.359-1.041-2.186-1.265
			c-0.828-0.222-1.697-0.224-2.525-0.004c-3.31,0.878-6.721,1.324-10.147,1.323c-10.43,0-20.224-4.054-27.582-11.412
			c-4.831-4.859-8.304-10.899-10.074-17.519c-1.769-6.62-1.772-13.588-0.009-20.209c0.22-0.828,0.219-1.699-0.004-2.527
			c-0.223-0.827-0.659-1.581-1.265-2.186c-0.607-0.605-1.361-1.041-2.189-1.262c-0.414-0.11-0.839-0.165-1.263-0.165
			C519.45,392.401,519.025,392.456,518.612,392.566"/>
	</defs>
	<clipPath id="SVGID_110_">
		<use xlink:href="#SVGID_109_"  overflow="visible"/>
	</clipPath>
	
		<linearGradient id="SVGID_111_" gradientUnits="userSpaceOnUse" x1="9.518309e-006" y1="1200.0244" x2="1.0002" y2="1200.0244" gradientTransform="matrix(0 96.1859 -96.1859 0 115953.6016 392.4001)">
		<stop  offset="0" style="stop-color:#FAFAFC"/>
		<stop  offset="1" style="stop-color:#CBD2E7"/>
	</linearGradient>
	<rect x="477.639" y="392.401" clip-path="url(#SVGID_110_)" fill="url(#SVGID_111_)" width="100.968" height="96.203"/>
</g>
</svg>
